<svg xmlns="http://www.w3.org/2000/svg" width="800px" height="800px" viewBox="0 0 24 24" fill="none">
    <path d="M17 12C17 11.4477 16.5523 11 16 11H8C7.44772 11 7 11.4477 7 12C7 12.5523 7.44771 13 8 13H16C16.5523 13 17 12.5523 17 12Z" fill="#20FF60"/>
    <path fill-rule="evenodd" clip-rule="evenodd" d="M12 23C18.0751 23 23 18.0751 23 12C23 5.92487 18.0751 1 12 1C5.92487 1 1 5.92487 1 12C1 18.0751 5.92487 23 12 23ZM12 20.9932C7.03321 20.9932 3.00683 16.9668 3.00683 12C3.00683 7.03321 7.03321 3.00683 12 3.00683C16.9668 3.00683 20.9932 7.03321 20.9932 12C20.9932 16.9668 16.9668 20.9932 12 20.9932Z" fill="#20FF60"/>
</svg>