<svg xmlns="http://www.w3.org/2000/svg" xmlns:xlink="http://www.w3.org/1999/xlink" height="800px" width="800px" version="1.1" id="_x32_" viewBox="0 0 512 512" xml:space="preserve">
<style type="text/css">
	.st0{fill:#20FF60;}
</style>
<g>
	<path class="st0" d="M316.16,438.479c0-28.392,12.205-53.92,31.551-71.838c-18.452-7.164-38.356-17.934-38.356-31.703   c0-9.533,0-21.444,0-37.782c6.996-19.393,17.51-20.781,22.768-50.546c12.254-4.379,19.258-11.384,28.009-42.026   c6.574-23.064-3.112-29.254-9.382-30.905c0.128-1.229,0.256-2.466,0.359-3.917c2.369-34.543,22.425-137.078-47.012-149.332   c-18.38-14.296-30.043-20.774-69.436-18.38C209.723,2.042,190.768,7.547,164.355,0c-35.245,29.565-25.561,126.66-20.63,173.504   c-6.199,1.388-16.889,7.148-10.052,31.08c8.743,30.642,15.747,37.646,28.001,42.026c5.258,29.765,21.253,39.322,22.418,50.546   c0,16.338,0,28.248,0,37.782c0,14.4-23.494,26.55-40.877,32.676C109.78,379.397,16.634,414.275,24.795,512h324.766   C329.131,494.018,316.16,467.765,316.16,438.479z"/>
	<path class="st0" d="M414.188,364.958c-40.606,0-73.521,32.916-73.521,73.521S373.582,512,414.188,512s73.521-32.916,73.521-73.521   S454.794,364.958,414.188,364.958z M455.033,448.69h-30.634v30.634h-20.422V448.69h-30.634v-20.422h30.634v-30.634h20.422v30.634   h30.634V448.69z"/>
</g>
</svg>