<svg xmlns="http://www.w3.org/2000/svg" xmlns:xlink="http://www.w3.org/1999/xlink" version="1.1" width="260px" height="260px" style="shape-rendering:geometricPrecision; text-rendering:geometricPrecision; image-rendering:optimizeQuality; fill-rule:evenodd; clip-rule:evenodd">
<g><path style="opacity:0.5" fill="#000" d="M -0.5,-0.5 C 86.1667,-0.5 172.833,-0.5 259.5,-0.5C 259.5,86.1667 259.5,172.833 259.5,259.5C 172.833,259.5 86.1667,259.5 -0.5,259.5C -0.5,172.833 -0.5,86.1667 -0.5,-0.5 Z M 164.5,6.5 C 166.936,7.87096 169.603,8.87096 172.5,9.5C 178.081,12.0274 183.748,14.3607 189.5,16.5C 189.973,17.9063 190.973,18.573 192.5,18.5C 193.514,19.6737 194.847,20.3404 196.5,20.5C 196.973,21.9063 197.973,22.573 199.5,22.5C 199.973,23.9063 200.973,24.573 202.5,24.5C 202.973,25.9063 203.973,26.573 205.5,26.5C 206.585,28.5869 208.251,29.9202 210.5,30.5C 212.569,33.5725 215.236,35.9059 218.5,37.5C 219.5,38.8333 220.5,40.1667 221.5,41.5C 222.5,43.1667 223.833,44.5 225.5,45.5C 230.323,51.1466 234.657,57.1466 238.5,63.5C 238.932,64.7095 239.599,65.7095 240.5,66.5C 257.241,97.6252 261.241,130.292 252.5,164.5C 251.129,166.936 250.129,169.603 249.5,172.5C 246.973,178.081 244.639,183.748 242.5,189.5C 241.094,189.973 240.427,190.973 240.5,192.5C 239.326,193.514 238.66,194.847 238.5,196.5C 237.094,196.973 236.427,197.973 236.5,199.5C 235.094,199.973 234.427,200.973 234.5,202.5C 233.094,202.973 232.427,203.973 232.5,205.5C 230.413,206.585 229.08,208.251 228.5,210.5C 225.427,212.569 223.094,215.236 221.5,218.5C 220.167,219.167 219.167,220.167 218.5,221.5C 215.236,223.094 212.569,225.427 210.5,228.5C 208.251,229.08 206.585,230.413 205.5,232.5C 200.991,234.919 196.658,237.586 192.5,240.5C 190.973,240.427 189.973,241.094 189.5,242.5C 185.646,243.93 181.979,245.597 178.5,247.5C 173.607,248.796 168.94,250.462 164.5,252.5C 130.292,261.241 97.6252,257.241 66.5,240.5C 65.7095,239.599 64.7095,238.932 63.5,238.5C 57.1466,234.657 51.1466,230.323 45.5,225.5C 44.5,223.833 43.1667,222.5 41.5,221.5C 40.1667,220.5 38.8333,219.5 37.5,218.5C 35.9059,215.236 33.5725,212.569 30.5,210.5C 29.9202,208.251 28.5869,206.585 26.5,205.5C 26.573,203.973 25.9063,202.973 24.5,202.5C 24.573,200.973 23.9063,199.973 22.5,199.5C 22.573,197.973 21.9063,196.973 20.5,196.5C 20.3404,194.847 19.6737,193.514 18.5,192.5C 18.573,190.973 17.9063,189.973 16.5,189.5C 14.3607,183.748 12.0274,178.081 9.5,172.5C 8.87096,169.603 7.87096,166.936 6.5,164.5C -6.53322,104.072 12.1334,56.2389 62.5,21C 94.562,2.15513 128.562,-2.67821 164.5,6.5 Z"/></g>
<g><path style="opacity:0.5" fill="#000" d="M 164.5,6.5 C 167.716,6.3455 170.383,7.3455 172.5,9.5C 169.603,8.87096 166.936,7.87096 164.5,6.5 Z"/></g>
<g><path style="opacity:0.5" fill="#000" d="M 189.5,16.5 C 191.027,16.427 192.027,17.0937 192.5,18.5C 190.973,18.573 189.973,17.9063 189.5,16.5 Z"/></g>
<g><path style="opacity:0.5" fill="#000" d="M 196.5,20.5 C 198.027,20.427 199.027,21.0937 199.5,22.5C 197.973,22.573 196.973,21.9063 196.5,20.5 Z"/></g>
<g><path style="opacity:0.5" fill="#000" d="M 199.5,22.5 C 201.027,22.427 202.027,23.0937 202.5,24.5C 200.973,24.573 199.973,23.9063 199.5,22.5 Z"/></g>
<g><path style="opacity:0.5" fill="#000" d="M 205.5,26.5 C 207.749,27.0798 209.415,28.4131 210.5,30.5C 208.251,29.9202 206.585,28.5869 205.5,26.5 Z"/></g>
<g><path style="opacity:0.5" fill="#000" d="M 210.5,30.5 C 213.764,32.0941 216.431,34.4275 218.5,37.5C 215.236,35.9059 212.569,33.5725 210.5,30.5 Z"/></g>
<g><path style="opacity:0.5" fill="#000" d="M 221.5,41.5 C 223.833,41.8333 225.167,43.1667 225.5,45.5C 223.833,44.5 222.5,43.1667 221.5,41.5 Z"/></g>
<g><path style="opacity:0.5" fill="#000" d="M 238.5,63.5 C 240.048,63.8212 240.715,64.8212 240.5,66.5C 239.599,65.7095 238.932,64.7095 238.5,63.5 Z"/></g>
<g><path style="opacity:0.5" fill="#000" d="M 6.5,164.5 C 7.87096,166.936 8.87096,169.603 9.5,172.5C 7.3455,170.383 6.3455,167.716 6.5,164.5 Z"/></g>
<g><path style="opacity:0.5" fill="#000" d="M 252.5,164.5 C 252.655,167.716 251.655,170.383 249.5,172.5C 250.129,169.603 251.129,166.936 252.5,164.5 Z"/></g>
<g><path style="opacity:0.5" fill="#000" d="M 16.5,189.5 C 17.9063,189.973 18.573,190.973 18.5,192.5C 17.0937,192.027 16.427,191.027 16.5,189.5 Z"/></g>
<g><path style="opacity:0.5" fill="#000" d="M 242.5,189.5 C 242.573,191.027 241.906,192.027 240.5,192.5C 240.427,190.973 241.094,189.973 242.5,189.5 Z"/></g>
<g><path style="opacity:0.5" fill="#000" d="M 20.5,196.5 C 21.9063,196.973 22.573,197.973 22.5,199.5C 21.0937,199.027 20.427,198.027 20.5,196.5 Z"/></g>
<g><path style="opacity:0.5" fill="#000" d="M 238.5,196.5 C 238.573,198.027 237.906,199.027 236.5,199.5C 236.427,197.973 237.094,196.973 238.5,196.5 Z"/></g>
<g><path style="opacity:0.5" fill="#000" d="M 22.5,199.5 C 23.9063,199.973 24.573,200.973 24.5,202.5C 23.0937,202.027 22.427,201.027 22.5,199.5 Z"/></g>
<g><path style="opacity:0.5" fill="#000" d="M 236.5,199.5 C 236.573,201.027 235.906,202.027 234.5,202.5C 234.427,200.973 235.094,199.973 236.5,199.5 Z"/></g>
<g><path style="opacity:0.5" fill="#000" d="M 26.5,205.5 C 28.5869,206.585 29.9202,208.251 30.5,210.5C 28.4131,209.415 27.0798,207.749 26.5,205.5 Z"/></g>
<g><path style="opacity:0.5" fill="#000" d="M 232.5,205.5 C 231.92,207.749 230.587,209.415 228.5,210.5C 229.08,208.251 230.413,206.585 232.5,205.5 Z"/></g>
<g><path style="opacity:0.5" fill="#000" d="M 30.5,210.5 C 33.5725,212.569 35.9059,215.236 37.5,218.5C 34.4275,216.431 32.0941,213.764 30.5,210.5 Z"/></g>
<g><path style="opacity:0.5" fill="#000" d="M 228.5,210.5 C 226.906,213.764 224.573,216.431 221.5,218.5C 223.094,215.236 225.427,212.569 228.5,210.5 Z"/></g>
<g><path style="opacity:0.5" fill="#000" d="M 41.5,221.5 C 43.1667,222.5 44.5,223.833 45.5,225.5C 43.1667,225.167 41.8333,223.833 41.5,221.5 Z"/></g>
<g><path style="opacity:0.5" fill="#000" d="M 218.5,221.5 C 216.431,224.573 213.764,226.906 210.5,228.5C 212.569,225.427 215.236,223.094 218.5,221.5 Z"/></g>
<g><path style="opacity:0.5" fill="#000" d="M 210.5,228.5 C 209.415,230.587 207.749,231.92 205.5,232.5C 206.585,230.413 208.251,229.08 210.5,228.5 Z"/></g>
<g><path style="opacity:0.5" fill="#000" d="M 63.5,238.5 C 64.7095,238.932 65.7095,239.599 66.5,240.5C 64.8212,240.715 63.8212,240.048 63.5,238.5 Z"/></g>
<g><path style="opacity:0.5" fill="#000" d="M 192.5,240.5 C 192.027,241.906 191.027,242.573 189.5,242.5C 189.973,241.094 190.973,240.427 192.5,240.5 Z"/></g>
<g><path style="opacity:0.5" fill="#000" d="M 178.5,247.5 C 174.37,250.324 169.703,251.991 164.5,252.5C 168.94,250.462 173.607,248.796 178.5,247.5 Z"/></g>
</svg>