<?xml version="1.0" encoding="iso-8859-1"?>
<svg fill="#FFF" height="800px" width="800px" version="1.1" id="Layer_1" xmlns="http://www.w3.org/2000/svg" xmlns:xlink="http://www.w3.org/1999/xlink" 
	 viewBox="0 0 511.998 511.998" xml:space="preserve">
<g>
	<g>
		<path d="M442.471,76.017h-65.737V52.262C376.734,23.445,353.289,0,324.472,0H187.528c-28.818,0-52.262,23.445-52.262,52.262
			v23.754H69.529c-24.316,0-44.097,19.781-44.097,44.097v31.984c0,24.316,19.781,44.097,44.097,44.097h3.052l41.601,301.329
			c1.146,8.296,8.237,14.475,16.612,14.475h250.408c8.375,0,15.467-6.179,16.612-14.475l41.601-301.329h3.053
			c24.316,0,44.097-19.781,44.097-44.097v-31.984C486.568,95.798,466.786,76.017,442.471,76.017z M168.805,52.262
			c0-10.324,8.399-18.724,18.724-18.724h136.943c10.324,0,18.724,8.399,18.724,18.724v23.754h-174.39V52.262z M366.591,478.461
			H145.408l-38.97-282.266h299.123L366.591,478.461z M453.029,152.098c0,5.822-4.736,10.558-10.558,10.558
			c-12.961,0-359.208,0-372.942,0c-5.822,0-10.558-4.736-10.558-10.558v-31.985c0-5.822,4.736-10.558,10.558-10.558
			c5.472,0,359.996,0,372.942,0c5.822,0,10.558,4.736,10.558,10.558V152.098z"/>
	</g>
</g>
<g>
	<g>
		<path d="M255.137,230.524c-9.261,0-16.769,7.508-16.769,16.769v172.243c0,9.261,7.508,16.769,16.769,16.769
			c9.261,0,16.769-7.508,16.769-16.769V247.293C271.906,238.032,264.398,230.524,255.137,230.524z"/>
	</g>
</g>
<g>
	<g>
		<path d="M209.266,417.146l-24.803-172.243c-1.32-9.167-9.813-15.534-18.987-14.208c-9.167,1.32-15.528,9.821-14.208,18.987
			l24.803,172.243c1.321,9.176,9.831,15.528,18.987,14.208C204.225,434.813,210.586,426.312,209.266,417.146z"/>
	</g>
</g>
<g>
	<g>
		<path d="M346.524,230.696c-9.152-1.32-17.668,5.042-18.987,14.208l-24.804,172.241c-1.319,9.166,5.041,17.668,14.208,18.987
			c9.157,1.32,17.667-5.035,18.987-14.208l24.804-172.241C362.053,240.517,355.692,232.015,346.524,230.696z"/>
	</g>
</g>
</svg>